# xmcd
#
# Track frame offsets:
#	150
#	15742
#	26943
#	39643
#	52375
#	63949
#	79397
#	91819
#	105688
#	120913
#	133978
#	146376
#	166390
#
# Disc length: 2424 seconds
#
# Revision: 0
# Processed by: cddbd v1.5.1PL0 Copyright (c) Steve Scherf et al.
# Submitted via: dBpowerAMP V4.0
#
DISCID=b509760d
DTITLE=Los Plebes de San Luis - La Vida de Un Borracho
DYEAR=1900
DGENRE=
TTITLE0=La vida de un borracho
TTITLE1=La tragedia de un mojado
TTITLE2=Tu delirio
TTITLE3=Carga Maldita
TTITLE4=La del vestido blanco
TTITLE5=La casa blanqueada
TTITLE6=Prision de chicago
TTITLE7=Ausencia maldita
TTITLE8=Laurita Garza
TTITLE9=El Despreciado
TTITLE10=Chiquilla Cariñosa
TTITLE11=Frente a la iglesia
TTITLE12=Dolores Hidalgo
EXTD=
EXTT0=
EXTT1=
EXTT2=
EXTT3=
EXTT4=
EXTT5=
EXTT6=
EXTT7=
EXTT8=
EXTT9=
EXTT10=
EXTT11=
EXTT12=
PLAYORDER=
